<svg xmlns="http://www.w3.org/2000/svg" fill="none" viewBox="0 0 206 184"><path fill="#A15842" d="M133.401 163.16v3.771h33.855v-3.771h-33.855z"/><path fill="#A15842" d="M172.832 180.562l-8.805-52.414h-27.396l-8.805 52.414c-.04.248-.025.502.043.744s.187.467.35.658c.163.192.366.345.594.451.228.106.476.161.728.161.397.001.782-.135 1.091-.383.309-.249.523-.597.607-.985l11.529-53.072h15.119l11.529 53.072c.085.388.3.736.61.984.309.249.694.384 1.091.384.252 0 .5-.055.728-.161.228-.106.431-.259.594-.451.163-.191.282-.416.35-.658.068-.242.083-.496.043-.744z"/><path fill="#CA7358" d="M161.448 163.16v3.771h33.855v-3.771h-33.855z"/><path fill="#CA7358" d="M200.879 180.562l-8.806-52.414h-27.395l-8.807 52.414c-.04.248-.025.502.043.744s.188.467.351.658c.163.192.366.345.594.451.229.106.477.161.728.161.397.001.782-.135 1.092-.383.309-.249.523-.597.607-.985l11.529-53.072h15.11l11.529 53.072c.085.388.3.736.609.984.31.249.695.384 1.092.384.252.001.502-.053.731-.158.229-.105.433-.259.597-.45.164-.192.284-.417.352-.66.069-.243.083-.497.044-.746z"/><path fill="#FFB7D5" d="M173.208 119.699l3.357-13.134h-22.259c-4.363 0-8.602 1.451-12.049 4.126-3.448 2.674-5.907 6.42-6.991 10.646l-2.274 8.908h26.634c3.114 0 6.139-1.037 8.598-2.946 2.459-1.91 4.213-4.584 4.984-7.6z"/><path fill="#FFB7D5" d="M186.111 130.245h-53.119l.895-3.566h23.318l8.892-34.7767c1.211-4.7373 3.965-8.9366 7.827-11.9355 3.863-2.999 8.613-4.6269 13.503-4.6271 11.965 0 20.721 11.2783 17.758 22.8699l-5.495 21.4864c-.771 3.017-2.523 5.691-4.982 7.601-2.459 1.91-5.484 2.947-8.597 2.948z"/><path stroke="#A15842" stroke-linecap="round" stroke-linejoin="round" stroke-width=".895277" d="M134.438 126.332h28.259M157.308 126.203l4.95-19.363"/><path fill="#A15842" d="M118.35 30.2671c-1.484-3.7759-4.175-8.1403-5.636-6.8892-.354.3044-.566.8214-.672 1.4862-.284 1.8733.314 4.924 1.084 7.6993l-2.31 1.0095c-.015.0698-.035.1385-.058.2059-.423 1.2489-1.813 1.3765-1.813 1.3765s1.631 1.0116.906 2.6701-3.082 1.1191-3.082 1.1191c1.518 1.6205 1.31 2.7664.341 3.5431-.199.1424-.43.2317-.672.2596.065 2.0412.195 4.3779.432 6.831l15.515-4.924c-1.28-5.3046-2.871-11.426-4.035-14.3871z"/><path stroke="#30242A" stroke-linecap="round" stroke-linejoin="round" stroke-width=".895277" d="M112.788 33.0089c.147.4677.282.8661.342 1.0161 0 0-1.251 2.9231-.626 6.0543"/><path stroke="#30242A" stroke-linecap="round" stroke-linejoin="round" stroke-width="1.79055" d="M107.109 42.4965c.97-.7766 1.178-1.9226-.34-3.543 0 0 2.357.5326 3.082-1.1191.725-1.6518-.906-2.6702-.906-2.6702s1.732-.1522 1.918-1.8465"/><path fill="#EAA58B" d="M105.104 26.2204c.909.2731 4.962.3179 5.528 2.95.269 1.2399-1.389 1.7323-1.389 1.7323s1.79.8752 1.62 2.4083c-.01.0889-.026.1771-.047.2641l2.314-1.0116c-.77-2.7754-1.367-5.8193-1.083-7.6994l-2.746-6.0431-2.941-6.4751-6.267 2.8492 2.941 6.4751.967 2.1263 1.103 2.4239z"/><path fill="#A15842" d="M109.242 30.9026s1.659-.4924 1.39-1.7323c-.566-2.6321-4.619-2.6858-5.528-2.95l-1.097-2.4239c-.047 0-2.07.3178-2.887 1.5824-1.2802 1.983.28 3.4043.28 3.4043s-3.156 1.0788-1.5513 4.0556c0 0-1.8106 2.265.4473 4.0757 0 0-1.7096 1.5265.522 3.5811 1.846 1.7055 4.308 2.4777 5.627 2.2539.242-.0279.473-.1173.671-.2596.969-.7767 1.177-1.9226-.34-3.5431 0 0 2.357.5327 3.082-1.1191.725-1.6518-.907-2.6702-.907-2.6702s1.39-.1275 1.813-1.3764c.024-.0674.044-.1362.059-.206.021-.087.036-.1752.047-.2641.163-1.5287-1.628-2.4083-1.628-2.4083z"/><path stroke="#30242A" stroke-linecap="round" stroke-linejoin="round" stroke-width=".895277" d="M109.352 30.8737c-2.343-.2239-5.658-.7856-8.147-2.1196M109.603 35.6321c-2.301-.1791-6.146-.8662-9.577-2.4621M107.835 39.5757c-1.424-.3111-5.119-1.184-7.57-2.3098"/><path fill="#1E95A6" d="M184.103 65.5454c.006-.3159-.005-.6319-.031-.9468l-.354-1.9875c-1.419-5.0113-6.358-8.8185-8.174-14.8101l-6.193.0604v-.1164l-8.012 3.6058-3.112-6.502h-.055l-2.874 6.502-3.306-3.514v.0246s-10.047.3581-27.373 6.4102c0 0-.967-4.4204-2.22-9.5996l-15.516 4.924c.916 9.434 3.452 20.5601 10.22 23.0534 7.932 2.9208 27.138-2.7149 27.138-2.7149l2.713 21.5h35.694v-3.9728s2.923-1.4548 2.923-4.8009c-.006-6.052-1.678-6.8869-1.468-17.1154z"/><path fill="#F5EBDD" d="M158.169 44.8489h-5.79l-.389 2.988 3.306 3.5139 2.873-6.5019zM158.239 44.8489l3.111 6.5019 8.013-3.6057c.031-.3313.132-1.3429.266-2.7731v-.1231h-11.39z"/><path stroke="#4756DF" stroke-linecap="round" stroke-linejoin="round" stroke-width=".895277" d="M142.981 63.249l.79 6.4303"/><path fill="#30242A" d="M158.116 58.24c.98 0 1.775-.7946 1.775-1.7749 0-.9802-.795-1.7749-1.775-1.7749-.981 0-1.775.7947-1.775 1.7749 0 .9803.794 1.7749 1.775 1.7749zM111.774 55.3169c.98 0 1.775-.7946 1.775-1.7749 0-.9802-.795-1.7748-1.775-1.7748-.98 0-1.775.7946-1.775 1.7748 0 .9803.795 1.7749 1.775 1.7749z"/><path stroke="#4756DF" stroke-linecap="round" stroke-linejoin="round" stroke-width=".895277" d="M125.06 54.3791l.803 3.8586"/><path fill="#A15842" d="M158.172 44.8489h.069l-.02-.0426h11.415v.0426h.015c.094-1.0095.208-2.2136.329-3.514-1.96-.658-6.86-2.6232-8.579-6.2535 2.894-.9647 6.267-5.065 3.859-8.4425-3.196-4.4764-8.682 1.4481-8.682 1.4481s-3.377-2.171-5.065-6.7526c-.723.2395-2.894.4812-4.582 0 0 0-.725 1.9293-1.206 5.3045-.067.4656-.142.9132-.224 1.3429 0 0-2.187-.132-2.426.8326-.3 1.193 1.614 2.4621 1.614 2.4621-.75 2.6858-1.372 4.7651-.41 7.1734.851 2.124 2.655 4.5815 8.443 3.8586l-.325 2.4911h5.801l-.026.0493z"/><path fill="#EAA58B" d="M151.504 21.3344c1.688 4.5816 5.065 6.7526 5.065 6.7526s5.486-5.9222 8.682-1.4481c2.411 3.3775-.965 7.4778-3.859 8.4425 1.719 3.6303 6.619 5.5955 8.579 6.2535.423-4.5995.934-10.4233 1.068-13.2479.224-4.6039-.224-11.3565-7.717-14.7116-6.995-3.1335-13.506 1.6876-13.506 1.6876s-5.946-1.7122-6.267 2.171c-.241 2.894 3.378 4.1004 3.378 4.1004 1.683.4812 3.859.2395 4.577 0z"/><path stroke="#30242A" stroke-linecap="round" stroke-miterlimit="10" stroke-width=".895277" d="M152.869 42.7495c1.151-.1992 2.762-.6222 4.06-1.513M146.643 33.5057c.4.2485 1.893.4477 2.5-.7072"/><path fill="#30242A" d="M149.575 27.852c.403 0 .729-.3267.729-.7297 0-.4029-.326-.7296-.729-.7296-.403 0-.73.3267-.73.7296 0 .403.327.7297.73.7297z"/><path stroke="#30242A" stroke-linecap="round" stroke-miterlimit="10" stroke-width=".895277" d="M162.115 29.533l-2.652 1.6876"/><path fill="#30242A" d="M146.947 91.4279s-17.952 6.681-24.62 10.2281c-11.589 6.158-13.002 9.448-20.144 31.131-2.3857 7.189-3.9949 13.049-5.5147 17.619l19.2997 8.821.025-.049 3.133 1.466s5.056-6.585 5.867-14.038c1.047-9.624.42-16.131 4.818-19.902l50.91-35.2829-33.774.0068z"/><path fill="#A15842" d="M93.555 157.893l4.21 1.963c2.91 1.361 2.686 3.328 2.341 4.087-.3174.598-.6671 1.179-1.0473 1.739l10.4973 4.962c2.352-3.68 4.493-7.491 6.412-11.415l-19.2997-8.823c-1.0161 3.074-1.9875 5.56-3.1133 7.487z"/><path fill="#FF9767" d="M97.7651 159.856l-4.21-1.963c-1.1191 1.905-2.3725 3.261-3.9773 4.083-1.2021.594-2.5202.916-3.8609.944-.3513.014-.6893.036-1.0228.058.8953 1.603 1.3026 4.058 1.3026 4.058 2.4889.672 5.4724-.165 7.6099-1.023.8057-.324 1.4884-.653 1.974-.895.3378-.174.711-.268 1.091-.275.3799-.007.7563.073 1.1002.235l1.2982.613c.3802-.56.7298-1.141 1.047-1.739.341-.768.569-2.735-2.3519-4.096z"/><path fill="#30242A" d="M99.0587 165.682l-1.2982-.613c-.3439-.162-.7204-.242-1.1003-.235-.3799.007-.7532.101-1.0909.275-.4857.251-1.1683.58-1.9741.895-2.1263.858-5.1098 1.697-7.6098 1.023 0 0-.4074-2.462-1.3027-4.058-.2238.016-.423.034-.6289.054-4.0489.387-6.4572 1.484-7.8896 3.116l27.4158 12.78c1.139-1.381 2.751-3.46 4.626-6.229.448-.647.895-1.325 1.343-2.046l-10.4903-4.962z"/><path fill="#FF7235" d="M74.8347 168.426l26.9523 12.534s.671-.689 1.791-2.052l-27.4138-12.769c-.5851.67-1.0364 1.447-1.3295 2.287z"/><path stroke="#000" stroke-linecap="round" stroke-linejoin="round" stroke-width=".895277" d="M167.93 91.428s-21.977 6.0207-32.637 12.534c-11.068 6.752-11.191 12.258-9.575 30.332"/><path stroke="#A15842" stroke-linecap="round" stroke-linejoin="round" stroke-width=".895277" d="M162.641 126.726l-.832 3.279M203.043 106.117h-13.987"/><path fill="#A15842" d="M38.5111 163.16v3.771H72.366v-3.771H38.5111z"/><path fill="#A15842" d="M32.9357 180.562l8.8051-52.414h27.3977l8.805 52.414c.0399.248.0253.502-.0426.744-.068.243-.1877.467-.3509.659-.1632.191-.366.345-.5945.451-.2284.105-.477.16-.7287.16-.3966 0-.7813-.136-1.0903-.384-.309-.249-.5237-.596-.6084-.984l-11.529-53.06h-15.119L36.3512 181.22c-.0847.387-.2994.734-.6084.983-.309.248-.6937.384-1.0904.384-.2527 0-.5024-.055-.7318-.161-.2294-.106-.4328-.261-.5962-.454-.1634-.192-.2829-.418-.35-.662-.0671-.244-.0803-.499-.0387-.748z"/><path fill="#CA7358" d="M10.4644 163.16v3.771h33.8548v-3.771H10.4644z"/><path fill="#CA7358" d="M4.88899 180.562l8.80501-52.414h27.3977l8.8051 52.414c.0398.248.0253.502-.0427.744-.0679.243-.1876.467-.3508.659-.1633.191-.3661.345-.5945.451-.2285.105-.4771.16-.7287.16-.3967 0-.7814-.136-1.0904-.384-.309-.249-.5237-.596-.6084-.984l-11.5289-53.06h-15.119L8.30448 181.22c-.08475.387-.29942.734-.6084.983-.30899.248-.69373.384-1.09039.384-.25274 0-.50248-.055-.73185-.161-.22936-.106-.43282-.261-.59622-.454-.16341-.192-.28283-.418-.34995-.662-.06711-.244-.08031-.499-.03868-.748z"/><path fill="#3EC1F3" d="M32.562 119.699l-3.3573-13.134h22.2588c4.3632-.001 8.6026 1.451 12.0499 4.125 3.4474 2.675 5.9067 6.42 6.9904 10.647l2.274 8.897H46.1433c-3.1121.001-6.1361-1.034-8.5952-2.942-2.459-1.907-4.2133-4.579-4.9861-7.593z"/><path fill="#1E95A6" d="M19.6566 130.245h53.119l-.8953-3.566H48.5629l-8.8946-34.7767c-1.2114-4.7373-3.9653-8.9366-7.8275-11.9355-3.8621-2.999-8.6127-4.6269-13.5025-4.6271-11.96536 0-20.72116 11.2783-17.757798 22.8699L6.0775 119.696c.76984 3.017 2.52256 5.692 4.9815 7.602 2.4589 1.91 5.4839 2.947 8.5976 2.947z"/><path stroke="#4756DF" stroke-linecap="round" stroke-miterlimit="10" stroke-width=".895277" d="M71.3297 126.332H43.0703M48.4622 126.203L43.509 106.84"/><path stroke="#4756DF" stroke-linecap="round" stroke-linejoin="round" stroke-width=".895277" d="M43.2358 127.178l.723 2.827M2.72461 106.117H16.7111"/><path fill="#30242A" d="M158.116 58.24c.98 0 1.775-.7946 1.775-1.7749 0-.9802-.795-1.7749-1.775-1.7749-.981 0-1.775.7947-1.775 1.7749 0 .9803.794 1.7749 1.775 1.7749z"/><path fill="#A15842" d="M183.718 62.6112l.354 1.9875c-.052-.6726-.17-1.3384-.354-1.9875z"/><path fill="#3EC1F3" d="M169.629 44.972l.013-.1231h-.015l.002.1231z"/><path fill="#F5EBDD" d="M152.386 44.8063h-.036l-.004.043h.034l.006-.043z"/><path fill="#F5EBDD" d="M158.169 44.8489l.018-.0426h-5.801l-.007.0426h5.79zM152.345 44.8489l-.389 2.9522.034.0358.389-2.988h-.034zM169.624 44.8063h-11.405l.02.0426h11.388l-.003-.0426z"/><path fill="#30242A" d="M33.9475 20.4123c5.6367 0 10.2061-4.5694 10.2061-10.2061C44.1536 4.56945 39.5842 0 33.9475 0c-5.6367 0-10.2062 4.56945-10.2062 10.2062 0 5.6367 4.5695 10.2061 10.2062 10.2061z"/><path fill="#1E95A6" d="M40.9955 17.0103c-.6244.2865 4.6174-12.15117 7.2898-10.20842 2.518 1.83308-4.1317 8.75132-7.2898 10.20842zM40.7045 17.7712c-.5707.6827-13.9394-3.9929-12.0862-6.6922 1.7726-2.59626 12.6569 6.0096 12.0862 6.6922z"/><path fill="#EAA58B" d="M59.145 24.1569c-1.9405.3267-4.7831-.3402-4.7831-.3402-3.8899 4.3734-8.0216 5.3448-8.0216 5.3448-2.6724-2.9097-7.5338-2.9097-8.2612 1.2153-.808 4.5726 4.8591 5.8327 4.8591 5.8327s.8035 5.7164-1.3832 8.6327c-.3066.4074-.5886.7655-.8706 1.0811h10.8395l-.3223-1.9361s3.4021 1.2154 6.3184-.4857c2.9164-1.701 3.646-4.8613 2.6724-9.7227-.5752-2.8783-.555-6.4392-1.0474-9.6219z"/><path fill="#FF7235" d="M55.5192 86.0003c-4.8009 2.715-7.3077 7.9322-7.3077 7.9322h16.6992l-4.9666-9.96c-1.9785.855-3.834 1.6876-4.4249 2.0278z"/><path fill="#FF9767" d="M32.1613 48.6851c-7.3323.8147-10.0361 3.4155-15.3742 9.8212-1.3183 1.5824-3.3572 4.2772-4.633 5.9603l.0403.0336S2.90811 76.0157 3.33561 84.7715l13.02399 3.6371 8.8901-11.5849 2.5068 7.724s-5.6357 3.3394-8.767 9.4004h29.2219s2.5067-5.2172 7.3076-7.9322c.5954-.3402 2.4464-1.1683 4.425-2.0278l-.6715-1.3429 2.0837-6.446 4.6018 5.2105s-3.1335 1.3139-6.0118 2.5628l4.9665 9.9599H82.449c9.81-6.4706 2.2941-18.1584-.8349-22.3349-2.1554-2.8716-12.1086-17.3258-18.9955-21.0815-4.5928-2.5045-10.6851-2.1554-10.6851-2.1554l-.4074-2.4374H40.6843c-1.4861 1.6608-3.0104 2.1487-8.523 2.7619z"/><path stroke="#A15842" stroke-linecap="round" stroke-miterlimit="10" stroke-width=".895277" d="M65.9446 80.9442l3.7691-1.4145"/><path fill="#FFB7D5" d="M31.9196 82.813c.0582-4.1003.7341-14.4878 5.8551-19.7766 5.6492-5.8193 18.3688-4.5906 22.3349.6267 3.9661 5.2172 1.2534 12.5338 1.2534 12.5338l-1.8779 6.4706 5.4254 11.2716H16.2701l9.6019-8.767 6.0476-2.3591z"/><path stroke="#F5EBDD" stroke-linecap="round" stroke-miterlimit="10" stroke-width=".895277" d="M31.9309 82.6609h27.5387"/><path fill="#EAA58B" d="M63.4513 82.4528l5.4254 12.5338H58.44c-2.086 0-4.8009 0-4.5905-1.0452-1.6719 1.2534-4.3846 1.0452-4.1765 0-2.7127 1.2534-3.5475.4185-3.7556 0-.2082-.4186 2.5045-3.9661 8.5566-7.3234 3.5162-1.9293 8.9773-4.1652 8.9773-4.1652z"/><path stroke="#A15842" stroke-linecap="round" stroke-miterlimit="10" stroke-width=".895277" d="M48.4219 94.7673s3.1334-3.1335 10.0181-6.8869M60.3201 90.1767c-3.5547 2.2252-6.9706 4.6648-10.2285 7.3054M62.406 92.6813c-5.6245 2.9231-11.8915 6.8891-11.8915 6.8891"/><path fill="#A15842" d="M31.9743 48.3213l5.4802-2.0294c.013-.0048.0268-.007.0406-.0065.0138.0006.0273.0038.0399.0096.0125.0058.0238.0139.0332.0241.0094.0101.0167.022.0215.0349l6.483 17.507c.2789.7532.2472 1.5863-.0882 2.3161-.3354.7297-.9469 1.2964-1.7 1.5753-.7532.2789-1.5863.2472-2.3161-.0881-.7298-.3354-1.2965-.9469-1.5754-1.7001l-6.4829-17.5069c-.0049-.0132-.0071-.0271-.0065-.0411.0006-.014.004-.0278.01-.0404.006-.0127.0144-.024.0248-.0334.0105-.0093.0227-.0165.0359-.0211zM56.0586 68.4887c.3959.0455.7968.0124 1.1798-.0972.3831-.1096.7408-.2937 1.0526-.5417.3118-.248.5717-.5551.7647-.9036.193-.3486.3154-.7318.3602-1.1277l1.8085-15.9583c-1.9043-.7406-3.9045-1.2056-5.9402-1.381l-1.8935 16.6522c-.0455.3957-.0126.7964.0969 1.1793s.2934.7405.5412 1.0523c.2478.3118.5546.5717.9029.7649.3483.1931.7312.3157 1.1269.3608z"/><path fill="#30242A" d="M41.1745 66.4564c.9803 0 1.7749-.7947 1.7749-1.7749s-.7946-1.7749-1.7749-1.7749c-.9802 0-1.7748.7947-1.7748 1.7749s.7946 1.7749 1.7748 1.7749zM56.4569 67.007c.9802 0 1.7749-.7947 1.7749-1.7749s-.7947-1.7749-1.7749-1.7749c-.9803 0-1.7749.7947-1.7749 1.7749s.7946 1.7749 1.7749 1.7749zM22.282 49.0902l10.7322-3.167h7.6703c.282-.3156.564-.6715.8706-1.0811 2.1867-2.9096 1.3832-8.6327 1.3832-8.6327s-5.6671-1.2601-4.8591-5.8327c.7274-4.1295 5.5955-4.1295 8.2612-1.2154 0 0 4.1317-.9713 8.0216-5.3448 0 0 2.8426.6715 4.7831.3402-.3402-2.1911-.9222-4.201-2.1106-5.6872-2.9097-3.646-10.9359-6.0744-17.2543-1.4571-6.3184 4.6174-5.8327 12.1489-5.5955 15.0653 0 0-6.8041-2.1867-11.6632 2.9097-1.4063 1.4593-2.4307 3.2433-2.982 5.1936-.5513 1.9502-.6125 4.0065-.1783 5.9861 0 0-8.9528-.2529-10.69183 8.0195-.89528 4.2369.51702 7.1935 2.30533 9.1542l1.1191-2.2785L22.282 49.0902z"/><path fill="#30242A" d="M32.1614 48.6851c5.5149-.6132 7.0391-1.1011 8.5253-2.7619h-7.6725L22.282 49.0903 12.0893 61.0691l-1.1191 2.2784c.3644.4.7563.7739 1.1728 1.1191 1.2668-1.6831 3.3148-4.3779 4.6331-5.9603 5.347-6.4057 8.0508-9.0065 15.3853-9.8212z"/><path stroke="#A15842" stroke-linecap="round" stroke-linejoin="round" stroke-width=".895277" d="M51.0272 44.4371c-1.0065-.4008-1.9885-.8604-2.941-1.3765"/><path stroke="#000" stroke-linecap="round" stroke-linejoin="round" stroke-width=".895277" d="M18.9784 46.4425c.3523 1.3382.8289 2.6405 1.4235 3.89M33.7325 32.2881l.7006 3.6796"/><path stroke="#A15842" stroke-linecap="round" stroke-miterlimit="10" stroke-width=".895277" d="M25.5923 77.0318l4.877-6.8959"/><path fill="#F5EBDD" d="M42.9383 39.005c1.4091 0 2.5515-1.1424 2.5515-2.5515 0-1.4092-1.1424-2.5516-2.5515-2.5516-1.4092 0-2.5516 1.1424-2.5516 2.5516 0 1.4091 1.1424 2.5515 2.5516 2.5515z"/><path stroke="#A15842" stroke-linecap="round" stroke-linejoin="round" stroke-width=".895277" d="M43.4239 32.0777l-1.9427-1.2131M55.8571 37.783c-.4029.2506-1.9092.4476-2.518-.714"/><path fill="#30242A" d="M51.8979 32.3173c.4029 0 .7296-.3267.7296-.7297s-.3267-.7296-.7296-.7296c-.403 0-.7297.3266-.7297.7296s.3267.7297.7297.7297zM57.5201 31.3503c.4029 0 .7296-.3267.7296-.7297 0-.4029-.3267-.7296-.7296-.7296-.403 0-.7297.3267-.7297.7296 0 .403.3267.7297.7297.7297z"/><path stroke="#A15842" stroke-linecap="round" stroke-linejoin="round" stroke-width=".895277" d="M55.5752 32.5657s.6715 1.6607.4991 1.992c-.1141.2115-.2876.385-.4991.4991"/><path fill="#1E95A6" d="M93.2036 180.351h-3.9974c.2795.789.3967 1.627.3447 2.462h16.8741c.3-3.31-1.901-6.92-8.237-9.801l-.132-.063c-1.7391 1.305-3.3013 3.465-4.8524 7.402z"/><path fill="#F5EBDD" d="M97.888 172.869c-5.2709-2.614-4.3197-8.355-2.7843-21.377-.3639-.635-.9102-1.145-1.5679-1.465-.6576-.32-1.3964-.435-2.1203-.33-.7239.105-1.3995.425-1.9392.918-.5397.494-.9185 1.139-1.0872 1.851-.1921-.797-.6466-1.505-1.2902-2.012-.6437-.507-1.4392-.783-2.2584-.783-.8193 0-1.6147.276-2.2584.783-.6436.507-1.0981 1.215-1.2903 2.012-.1921-.797-.6466-1.505-1.2903-2.012-.6436-.507-1.4391-.783-2.2583-.783-.8193 0-1.6147.276-2.2584.783-.6436.507-1.0981 1.215-1.2903 2.012-.1921-.797-.6466-1.505-1.2903-2.012-.6436-.507-1.4391-.783-2.2583-.783-.8193 0-1.6147.276-2.2584.783-.6436.507-1.0981 1.215-1.2903 2.012-.1921-.797-.6466-1.505-1.2903-2.012-.6436-.507-1.4391-.783-2.2583-.783-.8193 0-1.6147.276-2.2584.783-.6436.507-1.0981 1.215-1.2903 2.012-.1344-.561-.3997-1.081-.774-1.519-.3743-.437-.847-.78-1.3794-1-.5324-.22-1.1093-.311-1.6835-.265-.5742.046-1.1293.228-1.6198.53.0224 1.152.0672 2.357.1388 3.63.3402 6.028 1.701 14.09 2.8693 20.177 5.694.305 8.0016 4.508 8.729 6.332h9.5862c.0873-.224.1723-.432.2596-.642l.0537-.128c.0828-.194.1634-.385.2462-.57.0202-.05.0425-.094.0627-.141.0738-.166.1477-.325.2238-.482l.0671-.141c.0702-.149.1396-.29.2082-.423l.094-.19.2104-.405.1209-.224c.0402-.076.0828-.15.123-.224.0717-.127.1455-.253.2239-.376.0313-.049.0604-.098.0895-.147.1679-.276.3357-.535.5058-.779l.0314-.047c.0962-.137.1925-.269.2887-.399.5848-.795 1.2796-1.503 2.0636-2.104.1791.099.3648.193.5618.282 4.6621 2.118 7.0839 4.636 7.921 7.131h3.9817c1.5511-3.937 3.1133-6.097 4.8502-7.404l-.1657-.069z"/><path fill="#1E95A6" d="M89.2062 180.351h.0156c-.837-2.495-3.2588-5.013-7.9209-7.131-.197-.089-.3828-.183-.5618-.282-.7584.58-1.4325 1.263-2.0032 2.028l-.0403.054-.0179.022c-.0962.13-.1925.262-.2887.399l-.0313.047c-.1701.244-.338.503-.5059.779-.0291.049-.0582.098-.0895.147-.0716.123-.1455.249-.2238.376-.0403.072-.0828.146-.1231.224l-.1209.224-.2104.405-.094.19c-.0686.136-.138.277-.2081.423l-.0672.141c-.0716.157-.1455.316-.2238.482-.0201.047-.0425.091-.0627.141-.0828.185-.1633.376-.2462.57l-.0537.128c-.0873.21-.1723.423-.2596.642h-9.5772c-.7364-1.824-3.044-6.027-8.729-6.332.9736 5.083 1.8152 8.792 1.8152 8.792h30.1731c.0529-.838-.0643-1.678-.3447-2.469z"/><path fill="#A15842" d="M24.2068 103.574v-3.8045h-7.1353c-.595 3.3995-.4545 6.8875.4118 10.2285h.291c1.7044 0 3.3392-.676 4.5453-1.881 1.2061-1.204 1.8848-2.838 1.8872-4.543z"/><path fill="#EAA58B" d="M87.9595 104.351l-.3401-.192c-2.3815-.092-5.3001.138-8.8297.933l-.056.013c-.2842.063-.5729.132-.8662.204l-.1633.04c-.2821.07-.5663.144-.855.224l-.1724.045c-.3156.085-.6334.177-.9579.271l-.0985.027c-.3626.107-.7319.223-1.1057.335-13.033 4.085-18.8142 14.325-20.5533 20.672h3.8542c-1.1504 5.354-3.5117 11.035-3.2722 23.289.4906-.303 1.0461-.485 1.6208-.532.5748-.047 1.1524.044 1.6854.264.533.22 1.0062.563 1.3808 1.001.3746.439.6399.96.7741 1.521.1922-.797.6467-1.505 1.2903-2.012.6437-.507 1.4391-.783 2.2584-.783.8192 0 1.6147.276 2.2583.783.6437.507 1.0982 1.215 1.2903 2.012.1922-.797.6467-1.505 1.2903-2.012.6437-.507 1.4391-.783 2.2584-.783.8193 0 1.6147.276 2.2584.783.6436.507 1.0981 1.215 1.2903 2.012.1921-.797.6466-1.505 1.2902-2.012.6437-.507 1.4391-.783 2.2584-.783.8193 0 1.6147.276 2.2584.783.6436.507 1.0981 1.215 1.2903 2.012.1921-.797.6466-1.505 1.2902-2.012.6437-.507 1.4392-.783 2.2584-.783.8193 0 1.6147.276 2.2584.783.6436.507 1.0981 1.215 1.2903 2.012.1687-.712.5474-1.357 1.0871-1.851.5397-.493 1.2153-.814 1.9392-.918.7239-.105 1.4627.01 2.1204.33.6577.32 1.2039.83 1.5678 1.465.3649-3.1.7633-6.612 1.1191-10.591 2.0502-23.016 3.6125-29.766-8.2679-36.55z"/><path stroke="#30242A" stroke-linecap="round" stroke-miterlimit="10" stroke-width=".895277" d="M89.562 182.657c.1119-3.203-2.1532-6.661-8.2612-9.437-6.9138-3.133-3.8385-11.099-1.9629-32.111 2.0949-23.465 3.6818-30.023-8.9752-36.948-11.0633-6.0431-22.3349-10.0182-22.3349-10.0182"/><path fill="#A15842" d="M74.5147 106.249c-13.615 4.277-18.8926 14.354-20.5623 20.672 1.748-6.343 7.5293-16.578 20.5623-20.672z"/><path fill="#FFB7D5" d="M66.9989 104.371c4.6736-2.201 9.7956-3.283 14.96-3.16-5.5493-2.7275-11.2401-5.1571-17.0483-7.2785H18.9897s-1.2534 2.0882-1.9003 5.7342c0 .0381-.0112.0739-.0179.1119h7.1354v3.8054c0 .844-.1664 1.681-.4897 2.461-.3232.781-.797 1.49-1.3944 2.087-.5973.597-1.3064 1.071-2.0868 1.394-.7805.324-1.6169.49-2.4617.49h-.2909c2.5 9.589 10.8507 16.914 21.556 16.914h9.1273c1.8555-6.871 5.9917-16.529 18.8322-22.559z"/><path fill="#A15842" d="M74.5147 106.249c5.5217-1.734 9.8235-2.216 13.1047-2.09l-.3716-.206c-1.7726-.969-3.552-1.887-5.2888-2.742-5.1645-.123-10.2865.959-14.9601 3.16-12.8405 6.03-16.9767 15.688-18.8322 22.55h5.7858c1.6697-6.318 6.9473-16.395 20.5622-20.672z"/><path stroke="#A15842" stroke-linecap="round" stroke-linejoin="round" stroke-width=".895277" d="M58.1244 127.499h4.9553"/><path stroke="#30242A" stroke-linecap="round" stroke-miterlimit="10" stroke-width=".895277" d="M76.7395 81.6179v10.6449"/><path stroke="#30242A" stroke-linecap="round" stroke-linejoin="round" stroke-width=".895277" d="M82.1245 67.3696s-1.5376 3.2677-5.385 3.2677c-3.8475 0-5.3717-3.2677-5.3717-3.2677"/><path fill="#F2EAC7" d="M72.0796 74.5206h9.3221v.9736c0 1.2365-.4912 2.4224-1.3655 3.2967-.8743.8743-2.0602 1.3655-3.2967 1.3655-1.2364 0-2.4223-.4912-3.2966-1.3655-.8743-.8743-1.3655-2.0602-1.3655-3.2967v-.9736h.0022z"/><path stroke="#30242A" stroke-linecap="round" stroke-miterlimit="10" stroke-width=".895277" d="M71.9453 67.0048h9.5906c.1379 0 .2744.0271.4018.0799.1273.0527.243.13.3405.2275.0975.0975.1748.2132.2276.3406.0527.1273.0799.2638.0799.4017v7.5091c0 1.5499-.6157 3.0363-1.7117 4.1323-1.0959 1.0959-2.5824 1.7116-4.1323 1.7116v0c-.7674 0-1.5273-.1511-2.2363-.4448-.709-.2937-1.3533-.7242-1.8959-1.2668-.5427-.5427-.9732-1.1869-1.2668-1.8959-.2937-.709-.4449-1.469-.4449-2.2364v-7.5091c0-.2784.1106-.5454.3075-.7423.1968-.1968.4638-.3074.7422-.3074h-.0022z"/><path fill="#30232A" d="M76.7394 91.2197l-4.6599 2.7127h9.322l-4.6621-2.7127z"/><path stroke="#30242A" stroke-linecap="round" stroke-miterlimit="10" stroke-width=".895277" d="M132.247 81.6179v10.6449"/><path stroke="#30242A" stroke-linecap="round" stroke-linejoin="round" stroke-width=".895277" d="M137.632 67.3696s-1.538 3.2677-5.385 3.2677c-3.848 0-5.372-3.2677-5.372-3.2677"/><path fill="#F2EAC7" d="M127.587 74.5206h9.322v.9736c0 1.2365-.491 2.4224-1.366 3.2967-.874.8743-2.06 1.3655-3.296 1.3655-1.237 0-2.423-.4912-3.297-1.3655-.874-.8743-1.366-2.0602-1.366-3.2967v-.9736h.003z"/><path stroke="#30242A" stroke-linecap="round" stroke-miterlimit="10" stroke-width=".895277" d="M127.452 67.0048h9.591c.138 0 .274.0271.402.0799.127.0527.243.13.34.2275.098.0975.175.2132.228.3406.053.1273.08.2638.08.4017v7.5091c0 1.5499-.616 3.0363-1.712 4.1323-1.096 1.0959-2.582 1.7116-4.132 1.7116v0c-1.55 0-3.036-.6157-4.132-1.7116-1.096-1.096-1.712-2.5824-1.712-4.1323v-7.5091c0-.2784.11-.5454.307-.7423.197-.1968.464-.3074.743-.3074h-.003z"/><path fill="#30232A" d="M132.247 91.2197l-4.66 2.7127h9.322l-4.662-2.7127z"/><path stroke="#A15842" stroke-linecap="round" stroke-miterlimit="10" stroke-width=".895277" d="M17.7363 80.5749s9.8123-.8057 14.0447-1.0027"/><path fill="#1E95A6" d="M6.08422 119.699l-3.35729-13.134H22.3133c4.3631 0 8.6023 1.451 12.0496 4.126 3.4472 2.674 5.9067 6.42 6.9907 10.646l2.274 8.897H19.6633c-3.1118 0-6.1352-1.035-8.5938-2.942-2.45865-1.908-4.21256-4.579-4.98528-7.593z"/><path fill="#F5EBDD" d="M182.785 87.4618h-38.134v3.9661h38.134v-3.9661z"/><path fill="#EAA58B" d="M105.556 80.1563H90.1082v6.8892H113.28v-6.8892h-7.724zM105.556 87.0455H90.1082v6.887H113.28v-6.887h-7.724z"/><path fill="#EAA58B" d="M105.556 73.2672H90.1082v6.8892H113.28v-6.8892h-7.724zM105.556 59.4911H90.1082v6.8891H113.28v-6.8891h-7.724zM105.556 45.7151H90.1082v6.8869H113.28v-6.8869h-7.724z"/><path fill="#EAA58B" d="M105.556 66.3803h-7.7238v6.8892h7.7238v-6.8892zM105.556 52.602h-7.7238v6.8891h7.7238V52.602z"/><path stroke="#A15842" stroke-linejoin="round" stroke-width=".895277" d="M105.556 87.0455v-6.8892M97.8322 87.0455v-6.8892"/><path fill="#EAA58B" d="M105.556 38.526H90.1082v6.8892H113.28V38.526h-7.724z"/><path stroke="#A15842" stroke-linejoin="round" stroke-width=".895277" d="M105.556 45.4152V38.526M97.8322 45.4152V38.526M90.1082 87.0455H113.28M90.1082 80.1563H113.28M90.1082 45.7151H113.28M97.8322 72.851h7.7238M97.8322 66.7966h7.7238M97.8322 59.0748h7.7238M97.8322 53.0206h7.7238"/><path fill="#FF9767" d="M134.124 165.532h-5.049c-.112 2.762-.721 4.7-2.164 6.095-.62.579-1.333 1.047-2.111 1.385-.512.224-.989.472-1.437.716 1.567 1.012 3.134 3.286 3.134 3.286 1.216-.246 2.368-.744 3.382-1.461 2.032-1.366 3.677-3.293 4.476-4.331.233-.301.531-.544.873-.71.341-.167.717-.252 1.097-.251h1.434c.11-.667.185-1.339.224-2.014-.011-.83-.627-2.715-3.859-2.715z"/><path fill="#30242A" d="M137.757 170.266h-1.435c-.38-.002-.755.084-1.096.25-.342.167-.641.41-.873.71-.804 1.039-2.449 2.966-4.477 4.331-1.013.717-2.165 1.215-3.382 1.462 0 0-1.566-2.274-3.133-3.286-.166.087-.325.177-.481.266-3.391 1.956-4.83 4.17-5.26 6.359h29.584c.479-1.578.873-3.181 1.18-4.801.289-1.488.568-3.225.804-5.226l-11.431-.065z"/><path fill="#FF9767" d="M117.515 182.811h28.776c.364-.797.668-1.62.911-2.462h-29.58c-.152.811-.189 1.64-.107 2.462z"/><path stroke="#F5EBDD" stroke-linecap="round" stroke-miterlimit="10" stroke-width=".895277" d="M128.173 169.476l6.043 4.029M125.935 171.938l4.7 4.476"/><path fill="#30242A" d="M189.636 105.896c-1.585-9.1389-6.994-14.468-6.994-14.468h-14.264s-21.977 6.0207-32.638 12.534c-12.31 7.516-11.072 13.483-8.977 36.948.747 8.369 1.685 14.665 2.106 19.412h20.972v-.081h3.87s1.987-9.194-.211-17.388c-2.305-8.591-4.4-10.057-5.656-15.923h24.057c11.15-.009 19.64-10.049 17.735-21.034z"/><path fill="#A15842" d="M129.075 165.532h5.052c3.22 0 3.847 1.878 3.847 2.713-.039.675-.113 1.347-.224 2.014l11.429.058c.333-2.804.579-6.126.655-10.011h-20.972c.18 1.736.251 3.481.213 5.226z"/><path stroke="#000" stroke-linecap="round" stroke-linejoin="round" stroke-width=".895277" d="M147.645 127.275h-5.062"/><path stroke="#F5EBDD" stroke-linecap="round" stroke-miterlimit="10" stroke-width=".895277" d="M90.3477 160.971l3.8049 6.043M87.6619 162.314l2.462 6.043"/><path fill="#FFB7D5" d="M199.686 119.699l3.357-13.134h-19.58c-4.363-.001-8.602 1.451-12.05 4.125-3.447 2.675-5.906 6.42-6.99 10.647l-2.276 8.897h23.957c3.112 0 6.136-1.035 8.595-2.942 2.459-1.907 4.213-4.579 4.987-7.593z"/><path fill="#A15842" d="M172.205 93.9325H32.9739c-1.4982 0-2.7127 1.2145-2.7127 2.7127v.0022c0 1.4982 1.2145 2.7127 2.7127 2.7127H172.205c1.498 0 2.713-1.2145 2.713-2.7127v-.0022c0-1.4982-1.215-2.7127-2.713-2.7127z"/><path fill="#EAA58B" d="M49.8834 81.4097c-1.936-.8796-6.8891-1.6696-11.6901-1.6696-.9131 0-1.8957.0156-2.923.0447v13.5321c2.3769-.7386 4.3353-1.4369 5.6357-1.889 0 0 9.5571 7.301 11.2604 3.9616 0 0 2.4933 1.0072 3.1334-1.4571 0 0 2.9231 0 1.8801-2.086-.7028-1.4235-3.7557-4.5927-3.7557-4.5927s3.6259 2.1867 5.4276.8348c1.6765-1.2467-6.6742-5.6358-8.9684-6.6788z"/><path fill="#FF9767" d="M17.1095 80.9912l-13.56788.6267c-1.25115 6.6787 2.23819 13.5679 8.14028 14.6109 7.7643 1.3698 17.1893-.9221 23.5883-2.9097V79.7848c-7.8404.2283-18.1607 1.2064-18.1607 1.2064z"/><path stroke="#A15842" stroke-linecap="round" stroke-miterlimit="10" stroke-width=".895277" d="M53.8226 87.0052c-1.6428-1.3116-3.8877-3.0753-5.4007-4.1362M45.9174 85.3445c4.1026 2.8559 7.7933 6.625 9.5458 8.5208M43.988 88.2944c2.7575 2.0144 5.9156 5.0583 7.9769 7.1354"/><path fill="#A15842" d="M129.829 85.3758c-4.59 2.2964-8.245 6.2669-11.479 10.4367-1.462 1.8778-5.148 6.5555-2.715 7.0975 1.88.416 5.638-3.3396 5.638-3.3396s-2.263 4.8996-.627 6.2666c1.251 1.046 2.91-.624 2.91-.624 1.461 3.133 3.758.416 3.758.416 3.684 2.717 7.305-7.3053 7.305-7.3053 2.148-.7644 4.181-1.8186 6.043-3.1334 0 0 1.191.3088 3.116.6893l-1.737-14.0782c-4.541.8393-9.06 1.9987-12.212 3.5744z"/><path stroke="#30242A" stroke-linecap="round" stroke-miterlimit="10" stroke-width=".895277" d="M120.57 100.195c.671-1.7683 1.855-4.763 2.91-6.7841M127.325 94.7673c-1.746 3.7624-3.024 7.8847-3.736 10.4437M131.291 96.0184c-1.321 3.0216-2.664 7.1106-3.507 9.8306"/><path fill="#1E95A6" d="M170.117 93.9324c7.236-6.0275 15.264-19.4969 16.072-34.4413.419-7.724-5.636-11.6901-10.226-11.6901h-1.676l-14.82 31.939s-8.784.4633-17.408 2.0569l1.737 14.0782c6.224 1.2333 20.114 3.2297 26.321-1.9427z"/><path stroke="#4756DF" stroke-linecap="round" stroke-linejoin="round" stroke-width=".895277" d="M165.804 66.1296l-6.108 13.1628M176.287 87.1372c1.424-1.9846 2.707-4.0667 3.839-6.2311.671-1.2802 1.309-2.6142 1.898-3.9952M145.971 80.7316c7.272-1.0989 11.299-1.231 13.984-1.4548 1.791-.1477 4.253-.2238 4.253-.2238"/><path fill="#30242A" d="M148.93 93.5161c.98 0 1.775-.7947 1.775-1.7749s-.795-1.7749-1.775-1.7749c-.98 0-1.775.7947-1.775 1.7749s.795 1.7749 1.775 1.7749z"/><path stroke="#30242A" stroke-linecap="round" stroke-miterlimit="10" stroke-width=".895277" d="M143.923 96.3027c-1.866-.3716-3.015-.6715-3.015-.6715-1.862 1.3149-3.895 2.3691-6.043 3.1335 0 0-.125.3492-.356.8953M115.489 99.1653c.745-1.1608 1.55-2.2814 2.413-3.3573.427-.5506.862-1.096 1.305-1.6361"/><path fill="#fff" d="M51.8931 75.3261c-.68-.0646-.9658-.8101-1.159-1.3836-.1004-.3154-.2086-.5735-.3863-.7026.0309.0216.3091-.1147.3477-.1362.1082-.0501.2163-.1075.3245-.172.1931-.1219.3631-.2653.4945-.4445.309-.4014.4326-.9821.2395-1.4552-.1854-.4517-.6567-.7671-1.1589-.9105-1.0663-.2939-2.681-.0717-3.3378.8531-.1081.1506-.1854.3226-.224.5018-.0155.0645-.0232.1362-.0309.2008-.0232.3441.1236.6667.394.8745.0232.0144.0387.0287.0618.0431.0464.0286.1082.043.17.0501.0618 0 .1236-.0071.1777-.0286.0155-.0072.0232-.0144.0309-.0144.1005-.0573.17-.1577.1777-.2724 0-.0645 0-.129-.0386-.172-.2163-.2438-.1314-.6309-.1314-.6309.1314-.5448.7649-.8818 1.3212-.9678.5408-.0788 1.3598.0574 1.6534.5377.0927.1505.1314.3226.1236.4946-.0231.8459-.7726 1.3191-1.8233 1.3478.224-1.0323.4558-1.5915.7185-1.8352.0927-.1506-.479-.2796-.7263-.1004-.2627.1864-.479.6022-.6412 1.104-.2241.681-.5718 2.5879-.8267 3.0826-.0387.2795.7185.2867.8421.0932.1545-.38.3709-1.2474.5177-1.8568.7417-.043.9194.6094.9194.6094.2858.7957.6413 1.9356 1.6225 1.9642.3863.0072.5949-.552.3477-.6738z"/></svg>