<svg xmlns="http://www.w3.org/2000/svg" fill="none" viewBox="0 0 120 44"><path fill="#EAA58B" d="M106.202 35.6924l-.282.6491-76.3339.9378c-.6023 0-1.1986.1186-1.7551.3491-.5564.2304-1.0619.5682-1.4878.9941-.4258.4258-.7636.9314-.9941 1.4878-.2305.5564-.3491 1.1528-.3491 1.755v1.5511H119.561c2.294-2.0882-7.934-5.8462-13.359-7.724z"/><path stroke="#A15842" stroke-linecap="round" stroke-linejoin="round" stroke-width=".895277" d="M27.7148 43.1924v-1.6563M29.8008 43.1924v-1.6563"/><path fill="#EAA58B" d="M57.3553 38.6219c-.9938-4.5704-2.0838-18.9015-2.1868-20.2713-.1745 0-.3491.0134-.5259.0246-6.4729.4163-10.439 8.767-11.482 10.6448 0 0-3.8608 1.0251-6.8399 2.3971.4506.2157.7992.5988.9714 1.0677.4275 1.2578-.6983 2.7776-2.5135 3.3931-.5414.1878-1.1126.275-1.6853.2573.8214 4.6644 4.924 7.2876 13.6171 7.2876h15.0675c-1.2646-.2977-3.6661-1.3205-4.4226-4.8009zM106.04 25.9249c-1.515 1.9047-6.7366 3.6191-8.6055-.8707-3.7781 1.9875-12.6682 0-11.8826-8.8521-9.1765 1.813-18.3084 7.498-18.7829 7.7957 2.6545 4.727 5.5955 10.0718 6.2424 11.7035 1.1325 2.8313 1.0698 6.9608-1.6115 7.7217h34.3831c1.878-6.3049 2.234-12.4846.257-17.4981z"/><path fill="#30242A" d="M97.4349 25.0538c1.8688 4.4898 7.0901 2.7754 8.6061.8707-1.567-3.9572-4.566-7.1958-9.441-9.2191-3.2431-1.343-7.1465-1.2758-11.0477-.5036-.7856 8.852 8.1045 10.8395 11.8826 8.852zM34.7787 35.8777c1.8151-.6155 2.9409-2.1352 2.5135-3.3931-.1723-.4689-.5208-.852-.9714-1.0676-1.8689.8595-3.3886 1.8554-3.3886 2.8223-.0014.6354.0525 1.2697.1611 1.8958.5728.0177 1.144-.0696 1.6854-.2574z"/><path stroke="#A15842" stroke-linecap="round" stroke-linejoin="round" stroke-width=".895277" d="M46.9185 43.1992v-1.3273c0-.602.1185-1.198.3489-1.7541.2303-.5562.568-1.0615.9936-1.4871.4257-.4257.931-.7633 1.4871-.9937.5562-.2303 1.1522-.3489 1.7542-.3489h6.9182M49.6313 43.1989v-1.654M51.7197 43.1989v-1.654M80.3169 43.1989v-1.654M82.4053 43.1989v-1.654M77.3936 43.1992v-1.3273c0-.6021.1186-1.1984.3491-1.7547.2305-.5562.5683-1.0617.9942-1.4873.4259-.4257.9315-.7633 1.4879-.9935.5564-.2303 1.1527-.3486 1.7548-.3483h7.6099M80.1089 25.8887c-.4186 2.0882.4163 8.3507 4.1742 11.2715M41.0704 43.0245c-4.4226-.761-6.9697-2.6097-8.0172-5.3717M107.661 36.4219c-.248 2.2736-.697 4.5206-1.343 6.7145M49.2148 29.855c1.0365.9227 2.3704 1.4415 3.758 1.4615"/><path fill="#30242A" d="M73.0113 35.7009c-.6558-1.6362-3.5811-6.9765-6.2423-11.7036l-.0201.0135c-2.4352-2.6389-5.4657-5.8686-11.5804-5.6604.1029 1.3698 1.1929 15.7009 2.1867 20.2713.7565 3.4804 3.1581 4.5032 4.4226 4.8009h9.6243c2.6858-.761 2.7417-4.8904 1.6092-7.7217z"/><path stroke="#FFB7D5" stroke-linecap="round" stroke-linejoin="round" stroke-width=".895277" d="M39.1948 11.6272l3.4356-2.09937-1.5264 5.34477 4.0399-2.4016M45.8643 1.28874L49.4834 1l-3.4043 3.67735 4.0735-.28424"/><path fill="#FFB7D5" d="M8.35071 43.425c4.61199 0 8.35069-3.7387 8.35069-8.3507 0-4.6119-3.7387-8.3507-8.35069-8.3507C3.73875 26.7236 0 30.4624 0 35.0743c0 4.612 3.73875 8.3507 8.35071 8.3507z"/></svg>
